<svg xmlns="http://www.w3.org/2000/svg" style="overflow: visible;" viewBox="0 0 512 512" data-svgdocument="" id="_sGMVJQJMbqEciQVGzG2mL" class="fl-svgdocument"><rect x="0" y="0" width="100%" height="100%" fill="none" data-fl-background=""></rect><path text="FCT Manager" text-anchor="middle" font-size="100" letter-spacing="0" side="left" offset="0.5" dx="0" dy="0" space="preserve" href="" font-family="Pacifico" font-scale="contain" transform="matrix(0.6285887360572815, 0, 0, 0.6285887360572815, 249.9341278076172, 360.7450256347656)" x="0" y="0" fill="#164e87" data-fl-textpath="" id="_t1tIxHaZZG2MNmxNjEYo2" d="M-229.05-82.9Q-226.25-82.5 -225.2-81.2Q-224.15-79.9 -224.15-77.8L-224.15-77.8Q-224.15-70.9 -231.55-71.4L-231.55-71.4L-235.05-71.7Q-240.95-72.2 -246.8-72.5Q-252.65-72.8 -259.05-72.8L-259.05-72.8L-263.55-72.8Q-264.75-58 -266.05-45.8L-266.05-45.8L-248.85-46.1Q-245.15-46.1 -243.9-44.8Q-242.65-43.5 -242.65-41.3L-242.65-41.3Q-242.65-37.9 -244.65-35.95Q-246.65-34 -250.35-34L-250.35-34L-267.45-34L-268.05-29.7Q-270.15-13.2 -277-6.2Q-283.85 0.8 -295.85 0.8L-295.85 0.8Q-302.65 0.8 -308.35-2.15Q-314.05-5.1 -316.75-9.3L-316.75-9.3Q-317.85-11-317.85-13.4L-317.85-13.4Q-317.85-15.8 -316.7-17.6Q-315.55-19.4 -313.85-19.4L-313.85-19.4Q-312.65-19.4 -311.5-18.6Q-310.35-17.8 -308.55-15.5L-308.55-15.5Q-303.75-9.2 -296.65-9.2L-296.65-9.2Q-290.95-9.2 -287.1-13.85Q-283.25-18.5 -282.15-28.5L-282.15-28.5L-281.55-34L-286.35-34Q-288.65-34 -290.3-35.3Q-291.95-36.6 -291.95-39L-291.95-39Q-291.95-42.1 -290.35-43.75Q-288.75-45.4 -285.65-45.4L-285.65-45.4Q-282.85-45.4 -280.15-45.5L-280.15-45.5Q-278.95-56.5 -277.55-72.2L-277.55-72.2Q-288.35-71.2 -292.75-68.7Q-297.15-66.2 -297.15-61.3L-297.15-61.3Q-297.15-57.9 -295.15-54.8L-295.15-54.8Q-294.55-53.9 -294.55-53L-294.55-53Q-294.55-51.2 -296.55-49.85Q-298.55-48.5 -301.05-48.5L-301.05-48.5Q-303.75-48.5 -305.65-50.1L-305.65-50.1Q-306.85-51.1 -307.95-54.2Q-309.05-57.3 -309.05-61.1L-309.05-61.1Q-309.05-73.5 -296.3-79.1Q-283.55-84.7 -259.05-84.7L-259.05-84.7Q-242.05-84.7 -229.05-82.9L-229.05-82.9ZM-201.25 0.5Q-213.15 0.5 -221.95-3.85Q-230.75-8.2 -235.45-16.2Q-240.15-24.2 -240.15-34.8L-240.15-34.8Q-240.15-49.5 -234.6-60.9Q-229.05-72.3 -219.55-78.55Q-210.05-84.8 -198.45-84.8L-198.45-84.8Q-187.65-84.8 -182.05-79.25Q-176.45-73.7 -176.45-64.6L-176.45-64.6Q-176.45-58.5 -178.6-54.8Q-180.75-51.1 -184.75-51.1L-184.75-51.1Q-187.55-51.1 -189.15-52.4Q-190.75-53.7 -190.75-56.2L-190.75-56.2Q-190.75-57.1 -190.35-59.5L-190.35-59.5Q-189.75-62.5 -189.75-64.3L-189.75-64.3Q-189.75-73.4 -199.45-73.4L-199.45-73.4Q-206.05-73.4 -212.05-69.1Q-218.05-64.8 -221.75-56.45Q-225.45-48.1 -225.45-36.6L-225.45-36.6Q-225.45-24.6 -218.75-18.05Q-212.05-11.5 -198.95-11.5L-198.95-11.5Q-192.45-11.5 -185.8-13.15Q-179.15-14.8 -171.05-18.2L-171.05-18.2Q-169.55-18.8 -168.55-18.8L-168.55-18.8Q-166.95-18.8 -166.15-17.6Q-165.35-16.4 -165.35-14.5L-165.35-14.5Q-165.35-8.4 -171.95-5.5L-171.95-5.5Q-179.05-2.4 -186.7-0.95Q-194.35 0.5 -201.25 0.5L-201.25 0.5ZM-93.85-83Q-90.75-82.4 -89.2-80.9Q-87.65-79.4 -87.65-77.4L-87.65-77.4Q-87.65-74.1 -89.5-72.6Q-91.35-71.1 -95.35-71.4L-95.35-71.4Q-104.35-72.1 -109.4-72.35Q-114.45-72.6 -122.65-72.7L-122.65-72.7Q-126.35-54.3 -129.45-35.7L-129.45-35.7Q-130.55-28.9 -131.75-19.95Q-132.95-11 -133.35-5.5L-133.35-5.5Q-133.55-2.6 -135.75-1.05Q-137.95 0.5 -141.05 0.5L-141.05 0.5Q-144.35 0.5 -146.15-1.1Q-147.95-2.7 -147.95-5.3L-147.95-5.3Q-147.95-7.7 -147.2-13.25Q-146.45-18.8 -145.45-24.9L-145.45-24.9Q-144.35-31 -143.75-35.5L-143.75-35.5Q-142.65-43.1 -141.25-50.6Q-139.85-58.1 -138.45-64.8L-138.45-64.8Q-138.15-66.3 -137.75-68.25Q-137.35-70.2 -136.85-72.6L-136.85-72.6Q-146.65-72.3 -152.25-71Q-157.85-69.7 -160.2-67.35Q-162.55-65 -162.55-61.3L-162.55-61.3Q-162.55-57.9 -160.55-54.8L-160.55-54.8Q-160.15-54.1 -160.15-53.3L-160.15-53.3Q-160.15-51.4 -162.4-49.75Q-164.65-48.1 -167.05-48.1L-167.05-48.1Q-168.75-48.1 -169.85-49.1L-169.85-49.1Q-171.85-50.8 -173.15-53.95Q-174.45-57.1 -174.45-61.1L-174.45-61.1Q-174.45-69.6 -168.9-74.75Q-163.35-79.9 -152-82.3Q-140.65-84.7 -122.85-84.7L-122.85-84.7Q-111.85-84.7 -105.3-84.3Q-98.75-83.9 -93.85-83L-93.85-83ZM-58.55 0.5Q-62.25 0.5 -63.85-1.15Q-65.45-2.8 -65.45-7.4L-65.45-7.4Q-65.45-10.5 -64.8-15.35Q-64.15-20.2 -62.65-28.7L-62.65-28.7Q-60.05-44.4 -58.55-55.9L-58.55-55.9Q-57.65-63.1 -57.65-67.9L-57.65-67.9Q-57.65-72.4 -60.95-72.4L-60.95-72.4Q-63.55-72.4 -67.2-69.75Q-70.85-67.1 -75.25-61.3L-75.25-61.3Q-76.65-59.4 -78.35-59.4L-78.35-59.4Q-79.75-59.4 -80.8-60.75Q-81.85-62.1-81.85-63.8L-81.85-63.8Q-81.85-65.4 -81.2-67.05Q-80.55-68.7 -79.05-70.8L-79.05-70.8Q-74.25-77.5 -68.35-81.15Q-62.45-84.8 -56.55-84.8L-56.55-84.8Q-51.05-84.8 -48.1-81.3Q-45.15-77.8 -45.15-71.1L-45.15-71.1Q-45.15-68.4 -45.65-64.75Q-46.15-61.1 -46.55-58.8Q-46.95-56.5 -47.15-55.6L-47.15-55.6Q-41.45-71.9 -34.35-78.35Q-27.25-84.8 -18.75-84.8L-18.75-84.8Q-12.25-84.8 -8.5-80.2Q-4.75-75.6 -4.75-67.2L-4.75-67.2Q-4.75-63.9 -5.65-59L-5.65-59Q-0.65-72.8  6.05-78.8Q 12.75-84.8  21.45-84.8L 21.45-84.8Q 28.45-84.8  32.2-80.3Q 35.95-75.8  35.95-67.7L 35.95-67.7Q 35.95-63.3  34.65-57L 34.65-57L 28.55-28.4Q 27.55-23.4  27.55-19.8L 27.55-19.8Q 27.55-15.6  29.5-13.5Q 31.45-11.4  34.95-11.4L 34.95-11.4Q 38.25-11.4  41.4-13.6Q 44.55-15.8  48.85-20.9L 48.85-20.9Q 50.05-22.3  51.55-22.3L 51.55-22.3Q 52.85-22.3  53.6-21.1Q 54.35-19.9  54.35-17.8L 54.35-17.8Q 54.35-13.9  52.45-11.6L 52.45-11.6Q 47.25-5.3  42.15-2.4Q 37.05 0.5  31.45 0.5L 31.45 0.5Q 22.95 0.5  18.15-4.55Q 13.35-9.6  13.35-18.1L 13.35-18.1Q 13.35-24  15.75-35.2L 15.75-35.2L 19.75-53.5Q 19.95-54.4  20.45-56.7Q 20.95-59  21.25-61.05Q 21.55-63.1  21.55-65.1L 21.55-65.1Q 21.55-68.6  20.2-70.35Q 18.85-72.1  16.35-72.1L 16.35-72.1Q 11.65-72.1  6.5-66.05Q 1.35-60 -3.3-46Q-7.95-32 -10.85-9.6L-10.85-9.6Q-11.55-3.6 -13.3-1.55Q-15.05 0.5 -18.95 0.5L-18.95 0.5Q-22.35 0.5 -23.9-1.1Q-25.45-2.7 -25.45-7.1L-25.45-7.1Q-25.45-11.2 -24.35-17.85Q-23.25-24.5 -21.55-33.5L-21.55-33.5Q-16.95-57.7 -16.95-64.7L-16.95-64.7Q-16.95-68.5 -18.4-70.3Q-19.85-72.1 -22.75-72.1L-22.75-72.1Q-27.65-72.1 -32.85-66.55Q-38.05-61 -43-46.85Q-47.95-32.7 -51.25-8.6L-51.25-8.6Q-51.95-3.5 -53.3-1.5Q-54.65 0.5 -58.55 0.5L-58.55 0.5ZM 58.55 0.5Q 52.35 0.5  48.65-4Q 44.95-8.5  44.95-15.8L 44.95-15.8Q 44.95-23.8  48.65-30.95Q 52.35-38.1  58.5-42.45Q 64.65-46.8  71.55-46.8L 71.55-46.8Q 73.75-46.8  74.5-45.95Q 75.25-45.1  75.75-42.9L 75.75-42.9Q 77.85-43.3  80.15-43.3L 80.15-43.3Q 85.05-43.3  85.05-39.8L 85.05-39.8Q 85.05-37.7  83.55-29.8L 83.55-29.8Q 81.25-18.3  81.25-13.8L 81.25-13.8Q 81.25-12.3  82-11.4Q 82.75-10.5  83.95-10.5L 83.95-10.5Q 85.85-10.5  88.55-12.95Q 91.25-15.4  95.85-20.9L 95.85-20.9Q 97.05-22.3  98.55-22.3L 98.55-22.3Q 99.85-22.3  100.6-21.1Q 101.35-19.9  101.35-17.8L 101.35-17.8Q 101.35-13.8  99.45-11.6L 99.45-11.6Q 95.35-6.5  90.75-3Q 86.15 0.5  81.85 0.5L 81.85 0.5Q 78.55 0.5  75.8-1.75Q 73.05-4  71.65-7.9L 71.65-7.9Q 66.45 0.5  58.55 0.5L 58.55 0.5ZM 62.15-9.6Q 64.35-9.6  66.35-12.2Q 68.35-14.8  69.25-19.1L 69.25-19.1L 72.95-37.5Q 68.75-37.4  65.2-34.35Q 61.65-31.3  59.55-26.3Q 57.45-21.3  57.45-15.7L 57.45-15.7Q 57.45-12.6  58.7-11.1Q 59.95-9.6  62.15-9.6L 62.15-9.6ZM 100.35 0.5Q 96.55 0.5  95-3.5Q 93.45-7.5  93.45-16.3L 93.45-16.3Q 93.45-29.3  97.15-41L 97.15-41Q 98.05-43.9  100.1-45.25Q 102.15-46.6  105.85-46.6L 105.85-46.6Q 107.85-46.6  108.65-46.1Q 109.45-45.6  109.45-44.2L 109.45-44.2Q 109.45-42.6  107.95-37L 107.95-37Q 106.95-33  106.35-30Q 105.75-27  105.35-22.6L 105.35-22.6Q 108.65-31.2  112.75-36.6Q 116.85-42  120.8-44.3Q 124.75-46.6  128.05-46.6L 128.05-46.6Q 134.55-46.6  134.55-40.1L 134.55-40.1Q 134.55-36.2  132.35-26L 132.35-26Q 130.45-17.3  130.45-14.5L 130.45-14.5Q 130.45-10.5  133.35-10.5L 133.35-10.5Q 135.35-10.5  138.1-12.95Q 140.85-15.4  145.45-20.9L 145.45-20.9Q 146.65-22.3  148.15-22.3L 148.15-22.3Q 149.45-22.3  150.2-21.1Q 150.95-19.9  150.95-17.8L 150.95-17.8Q 150.95-13.8  149.05-11.6L 149.05-11.6Q 144.75-6.3  139.8-2.9Q 134.85 0.5  128.55 0.5L 128.55 0.5Q 123.45 0.5  120.85-2.45Q 118.25-5.4  118.25-11L 118.25-11Q 118.25-13.8  119.65-21L 119.65-21Q 120.95-27.3  120.95-29.7L 120.95-29.7Q 120.95-31.3  119.85-31.3L 119.85-31.3Q 118.55-31.3  116.2-27.95Q 113.85-24.6  111.4-19.1Q 108.95-13.6  107.45-7.5L 107.45-7.5Q 106.35-2.8  104.9-1.15Q 103.45 0.5  100.35 0.5L 100.35 0.5ZM 155.15 0.5Q 148.95 0.5  145.25-4Q 141.55-8.5  141.55-15.8L 141.55-15.8Q 141.55-23.8  145.25-30.95Q 148.95-38.1  155.1-42.45Q 161.25-46.8  168.15-46.8L 168.15-46.8Q 170.35-46.8  171.1-45.95Q 171.85-45.1  172.35-42.9L 172.35-42.9Q 174.45-43.3  176.75-43.3L 176.75-43.3Q 181.65-43.3  181.65-39.8L 181.65-39.8Q 181.65-37.7  180.15-29.8L 180.15-29.8Q 177.85-18.3  177.85-13.8L 177.85-13.8Q 177.85-12.3  178.6-11.4Q 179.35-10.5  180.55-10.5L 180.55-10.5Q 182.45-10.5  185.15-12.95Q 187.85-15.4  192.45-20.9L 192.45-20.9Q 193.65-22.3  195.15-22.3L 195.15-22.3Q 196.45-22.3  197.2-21.1Q 197.95-19.9  197.95-17.8L 197.95-17.8Q 197.95-13.8  196.05-11.6L 196.05-11.6Q 191.95-6.5  187.35-3Q 182.75 0.5  178.45 0.5L 178.45 0.5Q 175.15 0.5  172.4-1.75Q 169.65-4  168.25-7.9L 168.25-7.9Q 163.05 0.5  155.15 0.5L 155.15 0.5ZM 158.75-9.6Q 160.95-9.6  162.95-12.2Q 164.95-14.8  165.85-19.1L 165.85-19.1L 169.55-37.5Q 165.35-37.4  161.8-34.35Q 158.25-31.3  156.15-26.3Q 154.05-21.3  154.05-15.7L 154.05-15.7Q 154.05-12.6  155.3-11.1Q 156.55-9.6  158.75-9.6L 158.75-9.6ZM 241.05-22.1Q 242.35-22.1  243.1-20.85Q 243.85-19.6  243.85-17.7L 243.85-17.7Q 243.85-15.4  243.15-14.1Q 242.45-12.8  240.95-11.8L 240.95-11.8Q 232.35-6  228.35-3.2L 228.35-3.2L 221.95 1.1Q 218.15 21.8  212 33.65Q 205.85 45.5  196.35 45.5L 196.35 45.5Q 191.25 45.5  188.05 42.35Q 184.85 39.2 184.85 34.1L 184.85 34.1Q 184.85 27  190.45 18.85Q 196.05 10.7  211.45-1.2L 211.45-1.2L 212.05-5.1Q 210.35-2.4  207.6-0.95Q 204.85 0.5  202.15 0.5L 202.15 0.5Q 195.95 0.5  192.25-4Q 188.55-8.5  188.55-15.8L 188.55-15.8Q 188.55-23.8  192.25-30.95Q 195.95-38.1  202.1-42.45Q 208.25-46.8  215.15-46.8L 215.15-46.8Q 217.35-46.8  218.1-45.95Q 218.85-45.1  219.35-42.9L 219.35-42.9Q 221.25-43.3  223.75-43.3L 223.75-43.3Q 226.25-43.3  227.3-42.55Q 228.35-41.8  228.35-39.6L 228.35-39.6Q 228.35-38.4  228.25-37.7L 228.25-37.7Q 227.85-34.6  225.75-22L 225.75-22Q 225.35-19.6  224.9-16.75Q 224.45-13.9  223.95-10.7L 223.95-10.7Q 231.65-16.7  238.75-21.3L 238.75-21.3Q 240.05-22.1  241.05-22.1L 241.05-22.1ZM 205.75-9.6Q 208.05-9.6  210.15-12.4Q 212.25-15.2  213.15-20.4L 213.15-20.4L 216.35-37.5Q 212.25-37.4  208.75-34.35Q 205.25-31.3  203.15-26.3Q 201.05-21.3  201.05-15.7L 201.05-15.7Q 201.05-12.6  202.3-11.1Q 203.55-9.6  205.75-9.6L 205.75-9.6ZM 197.45 35.8Q 199.95 35.8  203.1 29.8Q 206.25 23.8  209.15 10.7L 209.15 10.7Q 201.45 17.3  198.05 22.6Q 194.65 27.9  194.65 31.9L 194.65 31.9Q 194.65 33.6  195.3 34.7Q 195.95 35.8  197.45 35.8L 197.45 35.8ZM 282.35-22.3Q 283.65-22.3  284.4-21.1Q 285.15-19.9  285.15-17.8L 285.15-17.8Q 285.15-13.8  283.25-11.6L 283.25-11.6Q 279.55-7.1  272.8-3.3Q 266.05 0.5  258.35 0.5L 258.35 0.5Q 247.85 0.5  242.05-5.2Q 236.25-10.9  236.25-20.8L 236.25-20.8Q 236.25-27.7  239.15-33.65Q 242.05-39.6  247.2-43.1Q 252.35-46.6  258.85-46.6L 258.85-46.6Q 264.65-46.6  268.15-43.15Q 271.65-39.7  271.65-33.8L 271.65-33.8Q 271.65-26.9  266.7-21.95Q 261.75-17  249.95-14.1L 249.95-14.1Q 252.45-9.5  259.45-9.5L 259.45-9.5Q 263.95-9.5  269.7-12.65Q 275.45-15.8  279.65-20.9L 279.65-20.9Q 280.85-22.3  282.35-22.3L 282.35-22.3ZM 257.15-36.8Q 253.45-36.8  250.9-32.5Q 248.35-28.2  248.35-22.1L 248.35-22.1L 248.35-21.9Q 254.25-23.3  257.65-26.1Q 261.05-28.9  261.05-32.6L 261.05-32.6Q 261.05-34.5  260-35.65Q 258.95-36.8  257.15-36.8L 257.15-36.8ZM 284.15 0.5Q 280.35 0.5  278.8-3.5Q 277.25-7.5  277.25-16.3L 277.25-16.3Q 277.25-29.3  280.95-41L 280.95-41Q 281.85-43.9  283.9-45.25Q 285.95-46.6  289.65-46.6L 289.65-46.6Q 291.65-46.6  292.45-46.1Q 293.25-45.6  293.25-44.2L 293.25-44.2Q 293.25-42.6  291.75-37L 291.75-37Q 290.75-33  290.15-30Q 289.55-27  289.15-22.6L 289.15-22.6Q 292.45-31.2  296.55-36.6Q 300.65-42  304.6-44.3Q 308.55-46.6  311.85-46.6L 311.85-46.6Q 318.35-46.6  318.35-40.1L 318.35-40.1Q 318.35-38.8  317.45-33.8L 317.45-33.8Q 316.65-29.8  316.65-28.8L 316.65-28.8Q 316.65-25.3  319.15-25.3L 319.15-25.3Q 321.95-25.3  326.35-29.7L 326.35-29.7Q 327.65-31  329.05-31L 329.05-31Q 330.35-31  331.1-29.85Q 331.85-28.7  331.85-26.8L 331.85-26.8Q 331.85-23.1  329.85-21L 329.85-21Q 327.05-18.1  323.3-16.05Q 319.55-14  315.35-14L 315.35-14Q 310.05-14  307.3-16.7Q 304.55-19.4  304.55-24L 304.55-24Q 304.55-25.5  304.85-27L 304.85-27Q 305.05-29  305.05-29.7L 305.05-29.7Q 305.05-31.3  303.95-31.3L 303.95-31.3Q 302.45-31.3  300-27.95Q 297.55-24.6  295.15-19.1Q 292.75-13.6  291.25-7.5L 291.25-7.5Q 290.15-2.8  288.7-1.15Q 287.25 0.5  284.15 0.5L 284.15 0.5Z"></path><g id="_RSW7n-2N9eGeVdvsA9wND" transform="matrix(0.8125001788139343, 0, 0, 0.8125001788139343, 53.478424072265625, 53.093868255615234)"><path id="_phllc85rE7S6GrLBFDQFc" d="M12.5 21.006c-0.214 0-0.406-0.137-0.475-0.342l-1.921-5.763L4.342 12.98c-0.187-0.062-0.319-0.228-0.339-0.423   c-0.021-0.196 0.076-0.385 0.246-0.483l19-11c0.171-0.097 0.38-0.088 0.537 0.023c0.16 0.111 0.24 0.305 0.206 0.497l-3 17   c-0.026 0.15-0.12 0.28-0.255 0.353c-0.133 0.073-0.293 0.08-0.435 0.02l-6.434-2.757l-0.879 4.396   c-0.044 0.222-0.232 0.387-0.459 0.401C12.521 21.005 12.51 21.006 12.5 21.006z M5.711 12.382l4.947 1.649   c0.149 0.049 0.267 0.167 0.316 0.316l1.404 4.214l0.631-3.154c0.029-0.147 0.124-0.274 0.258-0.344   c0.133-0.071 0.291-0.077 0.43-0.017l6.42 2.751l2.704-15.321L5.711 12.382z" fill="#3d90e3" transform="matrix(9.21692943572998, 0, 0, 9.21692943572998, 142.60638427734375, 76.1761474609375)"></path><path id="_wcoEW1OPWL1dDQwAKQ3wP" d="M13.5 16.006c-0.101 0-0.202-0.03-0.291-0.093c-0.225-0.16-0.276-0.473-0.116-0.697l6.489-9.084l-8.729 8.728   c-0.195 0.195-0.512 0.195-0.707 0s-0.195-0.512 0-0.707l13-13c0.185-0.185 0.478-0.197 0.677-0.028   c0.198 0.168 0.234 0.46 0.084 0.672l-10 14C13.81 15.933 13.655 16.006 13.5 16.006z" fill="#3d90e3" transform="matrix(9.21692943572998, 0, 0, 9.21692943572998, 142.6094207763672, 77.8016128540039)"></path><path id="_QAGRuNn40BQNQtoID3OYu" d="M12.5 21.006c-0.104 0-0.21-0.033-0.3-0.1c-0.221-0.166-0.266-0.479-0.101-0.7l3-4c0.167-0.222 0.48-0.265 0.7-0.1   c0.221 0.166 0.266 0.479 0.101 0.7l-3 4C12.802 20.937 12.651 21.006 12.5 21.006z" fill="#3d90e3" transform="matrix(9.21692943572998, 0, 0, 9.21692943572998, 144.15823364257812, 79.34628295898438)"></path><path id="_yb-tJ4vBPVXlCitcCDhSg" d="M1.222 19.699c-0.121 0-0.242-0.043-0.339-0.132c-0.249-0.229-0.494-0.465-0.736-0.707c-0.195-0.195-0.195-0.512 0-0.707     c0.195-0.196 0.512-0.195 0.707-0.001c0.232 0.232 0.468 0.459 0.707 0.679c0.203 0.187 0.216 0.503 0.029 0.707     C1.491 19.644 1.356 19.699 1.222 19.699z" fill="#3d90e3" transform="matrix(1.5472955703735352, 0, 0, 1.5472955703735352, 252.4014129638672, 204.7275848388672)"></path><path id="_UmfiolODk5NRACk73zmG8" d="M8.034 22.995c-0.472 0-0.956-0.05-1.438-0.149c-0.271-0.055-0.444-0.319-0.39-0.59c0.056-0.271 0.323-0.442 0.591-0.39     c0.416 0.085 0.832 0.128 1.237 0.128c0.002 0 0.004 0 0.006 0l0.225-0.004c0.325-0.018 0.509 0.206 0.519 0.481     S8.577 22.98 8.302 22.99l-0.261 0.005C8.039 22.995 8.036 22.995 8.034 22.995z M4.451 22.038c-0.078 0-0.156-0.018-0.23-0.056     c-0.466-0.242-0.943-0.533-1.419-0.863c-0.228-0.158-0.283-0.47-0.125-0.696c0.158-0.228 0.471-0.282 0.695-0.125     c0.44 0.307 0.881 0.575 1.31 0.797c0.245 0.127 0.341 0.429 0.213 0.674C4.806 21.94 4.632 22.038 4.451 22.038z" fill="#3d90e3" transform="matrix(9.21692943572998, 0, 0, 9.21692943572998, 110.86078643798828, 85.18427276611328)"></path><path id="_rTu32se3LxW-hc92MUk8L" d="M10.605 22.459c-0.194 0-0.379-0.114-0.46-0.303c-0.108-0.254 0.01-0.548 0.264-0.657     c0.277-0.119 0.558-0.259 0.837-0.424c0.237-0.14 0.543-0.062 0.685 0.177c0.141 0.238 0.062 0.544-0.177 0.685     c-0.309 0.182-0.629 0.345-0.952 0.483C10.738 22.447 10.671 22.459 10.605 22.459z" fill="#3d90e3" transform="matrix(9.21692943572998, 0, 0, 9.21692943572998, 119.91018676757812, 82.44525909423828)"></path></g></svg>